<svg width="72" height="72" viewBox="0 0 72 72" fill="none" xmlns="http://www.w3.org/2000/svg">
<path d="M36 9C21.0938 9 9 21.0938 9 36C9 50.9062 21.0938 63 36 63C50.9062 63 63 50.9062 63 36C63 21.0938 50.9062 9 36 9ZM53.2406 39.9375C52.8188 40.3031 52.2844 40.5 51.75 40.5C51.2156 40.5 50.5125 40.2469 50.0625 39.7406L38.25 26.2406V51.75C38.25 52.9875 37.2375 54 36 54C34.7625 54 33.75 52.9875 33.75 51.75V26.2406L21.9375 39.7406C21.4875 40.2469 20.8688 40.5 20.25 40.5C19.6312 40.5 19.2094 40.3031 18.7594 39.9375C17.8312 39.1219 17.7188 37.6875 18.5344 36.7594L34.2844 18.7594C34.2844 18.7312 34.3406 18.7031 34.3687 18.675C34.3687 18.675 34.425 18.6187 34.4531 18.5906C34.4531 18.5906 34.4812 18.5906 34.5094 18.5625C34.5375 18.5344 34.5656 18.5062 34.6219 18.4781C34.6219 18.4781 34.6781 18.45 34.7063 18.4219C34.7344 18.4219 34.7906 18.3656 34.8188 18.3656C34.8469 18.3656 34.875 18.3375 34.9031 18.3094C34.9312 18.3094 34.9875 18.2813 35.0156 18.2531C35.0438 18.2531 35.0719 18.225 35.1 18.225C35.1281 18.225 35.1562 18.225 35.2125 18.1969C35.2406 18.1969 35.2687 18.1969 35.325 18.1687C35.3531 18.1687 35.3812 18.1688 35.4375 18.1406C35.4656 18.1406 35.5219 18.1406 35.55 18.1406C35.5781 18.1406 35.6344 18.1406 35.6625 18.1406C35.6906 18.1406 35.7187 18.1406 35.775 18.1406C35.8031 18.1406 35.8594 18.1406 35.8875 18.1406C35.9156 18.1406 35.9438 18.1406 35.9719 18.1406C36 18.1406 36.0563 18.1406 36.0844 18.1406C36.1125 18.1406 36.1406 18.1406 36.1688 18.1406C36.1969 18.1406 36.2531 18.1406 36.2812 18.1406C36.3094 18.1406 36.3375 18.1406 36.3656 18.1406C36.4219 18.1406 36.45 18.1406 36.5063 18.1406C36.5344 18.1406 36.5625 18.1406 36.5906 18.1406C36.6188 18.1406 36.675 18.1406 36.7031 18.1687C36.7313 18.1687 36.7594 18.1687 36.7875 18.1969C36.8156 18.1969 36.8719 18.225 36.9 18.2531C36.9281 18.2531 36.9562 18.2812 36.9844 18.3094C37.0125 18.3094 37.0406 18.3375 37.0688 18.3656C37.0969 18.3656 37.125 18.4219 37.1812 18.4219C37.1812 18.4219 37.2375 18.45 37.2656 18.4781C37.2938 18.4781 37.3219 18.5344 37.3781 18.5625C37.3781 18.5625 37.4063 18.5625 37.4344 18.5906C37.4625 18.5906 37.4906 18.6469 37.5187 18.675C37.5187 18.675 37.575 18.7312 37.6031 18.7594L53.3531 36.7594C54.1687 37.6875 54.0844 39.1219 53.1281 39.9375H53.2406Z" fill="white"/>
</svg>
