<svg width="1793" height="136" viewBox="0 0 1793 136" fill="none" xmlns="http://www.w3.org/2000/svg">
<path d="M49.5 2.90002C70.25 2.90002 86.26 8.70003 97.55 20.28C108.83 31.87 114.48 47.67 114.48 67.69C114.48 87.71 108.84 103.52 97.55 115.1C86.27 126.69 70.25 132.48 49.5 132.48H0V2.90002H49.5ZM49.14 111.37C61.88 111.37 71.71 107.64 78.62 100.18C85.54 92.7201 88.99 81.89 88.99 67.69C88.99 53.49 85.53 42.67 78.62 35.2C71.7 27.74 61.88 24.01 49.14 24.01H24.57V111.37H49.14Z" fill="white"/>
<path d="M213.84 132.49L203.65 103.92H146.87L136.86 132.49H111.56L160.88 2.91003H189.64L239.87 132.49H213.84ZM154.33 82.98H196.19L191.09 68.97C186.6 57.32 181.26 42.52 175.07 24.56C169.73 40.21 164.45 55.02 159.24 68.97L154.33 82.98Z" fill="white"/>
<path d="M351.62 2.90002H387.29V132.48H363.81V92.9901C363.81 71.0301 364.05 49.6101 364.54 28.7401C361.99 37.4801 358.72 47.43 354.71 58.59L328.5 132.48H308.3L281.91 58.59C277.91 46.82 274.69 36.99 272.26 29.11C272.74 49.86 272.99 71.1501 272.99 92.9901V132.48H249.33V2.90002H285L307.39 65.87C311.03 77.03 314.73 88.74 318.49 101C322.25 87.9 326.07 75.76 329.95 64.6L351.61 2.90002H351.62Z" fill="white"/>
<path d="M408.58 132.49V2.91003H433.15V132.49H408.58Z" fill="white"/>
<path d="M544.9 132.49L534.71 103.92H477.93L467.92 132.49H442.62L491.94 2.91003H520.7L570.93 132.49H544.9ZM485.39 82.98H527.25L522.15 68.97C517.66 57.32 512.32 42.52 506.13 24.56C500.79 40.21 495.51 55.02 490.3 68.97L485.39 82.98Z" fill="white"/>
<path d="M666.12 2.90002H689.78V132.48H662.48L626.44 74.79C615.88 58.17 608.18 45.19 603.33 35.84C603.81 51.13 604.06 72.06 604.06 98.63V132.48H580.4V2.90002H607.7L643.92 60.59C654.47 77.7 662.12 90.68 666.85 99.54C666.36 79.16 666.12 58.23 666.12 36.75V2.90002Z" fill="white"/>
<path d="M770.4 135.4C750.86 135.4 735.18 129.21 723.35 116.84C711.52 104.47 705.6 88.08 705.6 67.7C705.6 47.32 711.52 30.94 723.35 18.56C735.18 6.18 750.86 0 770.4 0C789.94 0 805.44 6.19 817.27 18.56C829.1 30.93 835.01 47.32 835.01 67.7C835.01 88.08 829.1 104.46 817.27 116.84C805.44 129.22 789.82 135.4 770.4 135.4ZM741.92 101.37C749.02 109.62 758.51 113.75 770.4 113.75C782.29 113.75 791.78 109.63 798.88 101.37C805.98 93.12 809.53 81.9 809.53 67.7C809.53 53.5 805.98 42.28 798.88 34.03C791.78 25.78 782.29 21.65 770.4 21.65C758.51 21.65 749.02 25.78 741.92 34.03C734.82 42.28 731.27 53.5 731.27 67.7C731.27 81.9 734.82 93.12 741.92 101.37Z" fill="white"/>
<path d="M952.76 110.46H989.16V132.48H884.15V112.46L932.93 52.58C940.94 42.87 948.82 33.53 956.59 24.55C939.85 24.79 927.35 24.91 919.1 24.91H886.7V2.89001H988.08V22.73L938.94 82.79C930.93 92.5 923.04 101.84 915.28 110.82C932.02 110.58 944.52 110.46 952.77 110.46H952.76Z" fill="white"/>
<path d="M1096.36 132.49L1086.17 103.92H1029.39L1019.38 132.49H994.08L1043.4 2.91003H1072.16L1122.39 132.49H1096.36ZM1036.85 82.98H1078.71L1073.61 68.97C1069.12 57.32 1063.78 42.52 1057.59 24.56C1052.25 40.21 1046.97 55.02 1041.76 68.97L1036.85 82.98Z" fill="white"/>
<path d="M1217.57 2.90002H1241.23V132.48H1213.93L1177.89 74.79C1167.33 58.17 1159.63 45.19 1154.78 35.84C1155.26 51.13 1155.51 72.06 1155.51 98.63V132.48H1131.85V2.90002H1159.15L1195.37 60.59C1205.92 77.7 1213.57 90.68 1218.3 99.54C1217.81 79.16 1217.57 58.23 1217.57 36.75V2.90002Z" fill="white"/>
<path d="M1324.58 62.6H1382.46V132.49H1364.62L1361.16 115.38C1351.82 128.73 1337.74 135.4 1318.94 135.4C1300.14 135.4 1285.27 129.21 1273.99 116.84C1262.71 104.47 1257.06 88.08 1257.06 67.7C1257.06 47.32 1262.82 30.79 1274.35 18.47C1285.88 6.16 1301.47 0 1321.13 0C1337.39 0 1350.89 4.16 1361.62 12.47C1372.36 20.78 1378.82 31.97 1381 46.05H1355.7C1353.88 38.41 1349.9 32.4 1343.78 28.03C1337.65 23.66 1330.16 21.48 1321.3 21.48C1309.41 21.48 1300.01 25.61 1293.09 33.86C1286.17 42.11 1282.72 53.4 1282.72 67.71C1282.72 82.02 1286.24 93.31 1293.28 101.56C1300.32 109.81 1309.96 113.94 1322.22 113.94C1331.93 113.94 1340.24 111.03 1347.15 105.2C1354.07 99.38 1357.83 91.79 1358.43 82.45H1324.58V62.61V62.6Z" fill="white"/>
<path d="M1504.4 117.38C1504.64 123.81 1505.98 128.85 1508.4 132.49H1483.1C1481.04 129.09 1479.88 123.94 1479.64 117.02L1479.1 102.82C1478.73 94.81 1476.91 89.29 1473.64 86.26C1470.36 83.23 1465.27 81.7101 1458.35 81.7101H1426.32V132.49H1401.75V2.91003H1460.54C1475.1 2.91003 1486.35 6.22005 1494.3 12.83C1502.25 19.44 1506.22 28.3301 1506.22 39.4901C1506.22 47.0101 1504.37 53.44 1500.67 58.78C1496.97 64.12 1491.6 68.0001 1484.56 70.4301C1491.35 72.6101 1496.12 75.95 1498.85 80.44C1501.58 84.93 1503.06 90.81 1503.31 98.09L1504.4 117.38ZM1426.32 62.42H1459.08C1465.87 62.42 1471.21 60.69 1475.1 57.23C1478.98 53.77 1480.92 48.7701 1480.92 42.2101C1480.92 35.6501 1478.92 31.14 1474.91 27.92C1470.91 24.71 1465.32 23.1 1458.17 23.1H1426.32V62.41V62.42Z" fill="white"/>
<path d="M1522.78 132.49V2.91003H1547.35V132.49H1522.78Z" fill="white"/>
<path d="M1593.22 110.46H1654.92V132.48H1568.65V2.90002H1593.22V110.46Z" fill="white"/>
<path d="M1692.95 110.46H1754.65V132.48H1668.38V2.90002H1692.95V110.46Z" fill="white"/>
<path d="M1768.11 132.49V2.91003H1792.68V132.49H1768.11Z" fill="white"/>
</svg>
